<svg>
    <symbol id="Plus" xmlns="http://www.w3.org/2000/svg" width="24" height="24" viewBox="0 0 24 24" fill="none"
        stroke="currentColor" stroke-width="2" stroke-linecap="round" stroke-linejoin="round"
        class="icon icon-tabler icons-tabler-outline icon-tabler-plus">
        <path stroke="none" d="M0 0h24v24H0z" fill="none" />
        <path d="M12 5l0 14" />
        <path d="M5 12l14 0" />
    </symbol>

    <symbol id="Door" xmlns="http://www.w3.org/2000/svg" width="24" height="24" viewBox="0 0 24 24" fill="none"
        stroke="currentColor" stroke-width="2" stroke-linecap="round" stroke-linejoin="round"
        class="icon icon-tabler icons-tabler-outline icon-tabler-door">
        <path stroke="none" d="M0 0h24v24H0z" fill="none" />
        <path d="M14 12v.01" />
        <path d="M3 21h18" />
        <path d="M6 21v-16a2 2 0 0 1 2 -2h8a2 2 0 0 1 2 2v16" />
    </symbol>

    <symbol id="Search" xmlns="http://www.w3.org/2000/svg" width="24" height="24" viewBox="0 0 24 24" fill="none"
        stroke="currentColor" stroke-width="2" stroke-linecap="round" stroke-linejoin="round"
        class="icon icon-tabler icons-tabler-outline icon-tabler-search">
        <path stroke="none" d="M0 0h24v24H0z" fill="none" />
        <path d="M10 10m-7 0a7 7 0 1 0 14 0a7 7 0 1 0 -14 0" />
        <path d="M21 21l-6 -6" />
    </symbol>
    <symbol id="Edit" xmlns="http://www.w3.org/2000/svg" width="24" height="24" viewBox="0 0 24 24" fill="none"
        stroke="currentColor" stroke-width="2" stroke-linecap="round" stroke-linejoin="round"
        class="icon icon-tabler icons-tabler-outline icon-tabler-edit">
        <path stroke="none" d="M0 0h24v24H0z" fill="none" />
        <path d="M7 7h-1a2 2 0 0 0 -2 2v9a2 2 0 0 0 2 2h9a2 2 0 0 0 2 -2v-1" />
        <path d="M20.385 6.585a2.1 2.1 0 0 0 -2.97 -2.97l-8.415 8.385v3h3l8.385 -8.415z" />
        <path d="M16 5l3 3" />
    </symbol>

    <symbol id="Ban" xmlns="http://www.w3.org/2000/svg" width="24" height="24" viewBox="0 0 24 24" fill="none"
        stroke="currentColor" stroke-width="2" stroke-linecap="round" stroke-linejoin="round"
        class="icon icon-tabler icons-tabler-outline icon-tabler-ban">
        <path stroke="none" d="M0 0h24v24H0z" fill="none" />
        <path d="M12 12m-9 0a9 9 0 1 0 18 0a9 9 0 1 0 -18 0" />
        <path d="M5.7 5.7l12.6 12.6" />
    </symbol>

    <symbol id="Check" xmlns="http://www.w3.org/2000/svg" width="24" height="24" viewBox="0 0 24 24" fill="none"
        stroke="currentColor" stroke-width="2" stroke-linecap="round" stroke-linejoin="round"
        class="icon icon-tabler icons-tabler-outline icon-tabler-check">
        <path stroke="none" d="M0 0h24v24H0z" fill="none" />
        <path d="M5 12l5 5l10 -10" />
    </symbol>

    <symbol id="PlusOctagon" xmlns="http://www.w3.org/2000/svg" width="24" height="24" viewBox="0 0 24 24" fill="none"
        stroke="currentColor" stroke-width="2" stroke-linecap="round" stroke-linejoin="round"
        class="icon icon-tabler icons-tabler-outline icon-tabler-octagon-plus">
        <path stroke="none" d="M0 0h24v24H0z" fill="none" />
        <path
            d="M12.802 2.165l5.575 2.389c.48 .206 .863 .589 1.07 1.07l2.388 5.574c.22 .512 .22 1.092 0 1.604l-2.389 5.575c-.206 .48 -.589 .863 -1.07 1.07l-5.574 2.388c-.512 .22 -1.092 .22 -1.604 0l-5.575 -2.389a2.036 2.036 0 0 1 -1.07 -1.07l-2.388 -5.574a2.036 2.036 0 0 1 0 -1.604l2.389 -5.575c.206 -.48 .589 -.863 1.07 -1.07l5.574 -2.388a2.036 2.036 0 0 1 1.604 0z" />
        <path d="M9 12h6" />
        <path d="M12 9v6" />
    </symbol>

    <symbol id="Check" xmlns="http://www.w3.org/2000/svg" width="24" height="24" viewBox="0 0 24 24" fill="none"
        stroke="currentColor" stroke-width="2" stroke-linecap="round" stroke-linejoin="round"
        class="icon icon-tabler icons-tabler-outline icon-tabler-check">
        <path stroke="none" d="M0 0h24v24H0z" fill="none" />
        <path d="M5 12l5 5l10 -10" />
    </symbol>

    <symbol id="Confuzer" xmlns="http://www.w3.org/2000/svg" width="80" height="80" viewBox="0 0 24 24" fill="none"
        stroke="currentColor" stroke-width="2" stroke-linecap="round" stroke-linejoin="round"
        class="icon icon-tabler icons-tabler-outline icon-tabler-mood-confuzed">
        <path stroke="none" d="M0 0h24v24H0z" fill="none" />
        <path d="M12 12m-9 0a9 9 0 1 0 18 0a9 9 0 1 0 -18 0" />
        <path d="M9 10l.01 0" />
        <path d="M15 10l.01 0" />
        <path d="M9.5 16a10 10 0 0 1 6 -1.5" />
    </symbol>

    <symbol id="NoAccess" xmlns="http://www.w3.org/2000/svg" width="128" height="128" viewBox="0 0 24 24" fill="none"
        stroke="currentColor" stroke-width="2" stroke-linecap="round" stroke-linejoin="round"
        class="icon icon-tabler icons-tabler-outline icon-tabler-fingerprint-off">
        <path stroke="none" d="M0 0h24v24H0z" fill="none" />
        <path d="M18.9 7a8 8 0 0 1 1.1 5v1a6 6 0 0 0 .8 3" />
        <path d="M8 11c0 -.848 .264 -1.634 .713 -2.28m2.4 -1.621a4 4 0 0 1 4.887 3.901l0 1" />
        <path d="M12 12v1a14 14 0 0 0 2.5 8" />
        <path d="M8 15a18 18 0 0 0 1.8 6" />
        <path d="M4.9 19a22 22 0 0 1 -.9 -7v-1a8 8 0 0 1 1.854 -5.143m2.176 -1.825a8 8 0 0 1 7.97 .018" />
        <path d="M3 3l18 18" />
    </symbol>

    <symbol id="Eye" xmlns="http://www.w3.org/2000/svg" width="24" height="24" viewBox="0 0 24 24" fill="none"
        stroke="currentColor" stroke-width="2" stroke-linecap="round" stroke-linejoin="round"
        class="icon icon-tabler icons-tabler-outline icon-tabler-eye">
        <path stroke="none" d="M0 0h24v24H0z" fill="none" />
        <path d="M10 12a2 2 0 1 0 4 0a2 2 0 0 0 -4 0" />
        <path d="M21 12c-2.4 4 -5.4 6 -9 6c-3.6 0 -6.6 -2 -9 -6c2.4 -4 5.4 -6 9 -6c3.6 0 6.6 2 9 6" />
    </symbol>

    <symbol id="EyeOff" xmlns="http://www.w3.org/2000/svg" width="24" height="24" viewBox="0 0 24 24" fill="none"
        stroke="currentColor" stroke-width="2" stroke-linecap="round" stroke-linejoin="round"
        class="icon icon-tabler icons-tabler-outline icon-tabler-eye-off">
        <path stroke="none" d="M0 0h24v24H0z" fill="none" />
        <path d="M10.585 10.587a2 2 0 0 0 2.829 2.828" />
        <path
            d="M16.681 16.673a8.717 8.717 0 0 1 -4.681 1.327c-3.6 0 -6.6 -2 -9 -6c1.272 -2.12 2.712 -3.678 4.32 -4.674m2.86 -1.146a9.055 9.055 0 0 1 1.82 -.18c3.6 0 6.6 2 9 6c-.666 1.11 -1.379 2.067 -2.138 2.87" />
        <path d="M3 3l18 18" />
    </symbol>

    <symbol id="arrowRight" xmlns="http://www.w3.org/2000/svg" width="24" height="24" viewBox="0 0 24 24" fill="none"
        stroke="currentColor" stroke-width="2" stroke-linecap="round" stroke-linejoin="round"
        class="icon icon-tabler icons-tabler-outline icon-tabler-arrow-big-right">
        <path stroke="none" d="M0 0h24v24H0z" fill="none" />
        <path
            d="M4 9h8v-3.586a1 1 0 0 1 1.707 -.707l6.586 6.586a1 1 0 0 1 0 1.414l-6.586 6.586a1 1 0 0 1 -1.707 -.707v-3.586h-8a1 1 0 0 1 -1 -1v-4a1 1 0 0 1 1 -1z" />
    </symbol>

    <symbol id="arrowLeft" xmlns="http://www.w3.org/2000/svg" width="24" height="24" viewBox="0 0 24 24" fill="none"
        stroke="currentColor" stroke-width="2" stroke-linecap="round" stroke-linejoin="round"
        class="icon icon-tabler icons-tabler-outline icon-tabler-arrow-big-left">
        <path stroke="none" d="M0 0h24v24H0z" fill="none" />
        <path
            d="M20 15h-8v3.586a1 1 0 0 1 -1.707 .707l-6.586 -6.586a1 1 0 0 1 0 -1.414l6.586 -6.586a1 1 0 0 1 1.707 .707v3.586h8a1 1 0 0 1 1 1v4a1 1 0 0 1 -1 1z" />
    </symbol>
</svg>