<svg>
    <symbol id="Plus" xmlns="http://www.w3.org/2000/svg" width="24" height="24" viewBox="0 0 24 24" fill="none"
        stroke="currentColor" stroke-width="2" stroke-linecap="round" stroke-linejoin="round"
        class="icon icon-tabler icons-tabler-outline icon-tabler-plus">
        <path stroke="none" d="M0 0h24v24H0z" fill="none" />
        <path d="M12 5l0 14" />
        <path d="M5 12l14 0" />
    </symbol>

    <symbol id="Door" xmlns="http://www.w3.org/2000/svg" width="24" height="24" viewBox="0 0 24 24" fill="none"
        stroke="currentColor" stroke-width="2" stroke-linecap="round" stroke-linejoin="round"
        class="icon icon-tabler icons-tabler-outline icon-tabler-door">
        <path stroke="none" d="M0 0h24v24H0z" fill="none" />
        <path d="M14 12v.01" />
        <path d="M3 21h18" />
        <path d="M6 21v-16a2 2 0 0 1 2 -2h8a2 2 0 0 1 2 2v16" />
    </symbol>

    <symbol id="Search" xmlns="http://www.w3.org/2000/svg" width="24" height="24" viewBox="0 0 24 24" fill="none"
        stroke="currentColor" stroke-width="2" stroke-linecap="round" stroke-linejoin="round"
        class="icon icon-tabler icons-tabler-outline icon-tabler-search">
        <path stroke="none" d="M0 0h24v24H0z" fill="none" />
        <path d="M10 10m-7 0a7 7 0 1 0 14 0a7 7 0 1 0 -14 0" />
        <path d="M21 21l-6 -6" />
    </symbol>
    <symbol id="Edit" xmlns="http://www.w3.org/2000/svg" width="24" height="24" viewBox="0 0 24 24" fill="none"
        stroke="currentColor" stroke-width="2" stroke-linecap="round" stroke-linejoin="round"
        class="icon icon-tabler icons-tabler-outline icon-tabler-edit">
        <path stroke="none" d="M0 0h24v24H0z" fill="none" />
        <path d="M7 7h-1a2 2 0 0 0 -2 2v9a2 2 0 0 0 2 2h9a2 2 0 0 0 2 -2v-1" />
        <path d="M20.385 6.585a2.1 2.1 0 0 0 -2.97 -2.97l-8.415 8.385v3h3l8.385 -8.415z" />
        <path d="M16 5l3 3" />
    </symbol>

    <symbol id="Ban" xmlns="http://www.w3.org/2000/svg" width="24" height="24" viewBox="0 0 24 24" fill="none"
        stroke="currentColor" stroke-width="2" stroke-linecap="round" stroke-linejoin="round"
        class="icon icon-tabler icons-tabler-outline icon-tabler-ban">
        <path stroke="none" d="M0 0h24v24H0z" fill="none" />
        <path d="M12 12m-9 0a9 9 0 1 0 18 0a9 9 0 1 0 -18 0" />
        <path d="M5.7 5.7l12.6 12.6" />
    </symbol>

    <symbol id="Check" xmlns="http://www.w3.org/2000/svg" width="24" height="24" viewBox="0 0 24 24" fill="none"
        stroke="currentColor" stroke-width="2" stroke-linecap="round" stroke-linejoin="round"
        class="icon icon-tabler icons-tabler-outline icon-tabler-check">
        <path stroke="none" d="M0 0h24v24H0z" fill="none" />
        <path d="M5 12l5 5l10 -10" />
    </symbol>

    <symbol id="PlusOctagon" xmlns="http://www.w3.org/2000/svg" width="24" height="24" viewBox="0 0 24 24" fill="none"
        stroke="currentColor" stroke-width="2" stroke-linecap="round" stroke-linejoin="round"
        class="icon icon-tabler icons-tabler-outline icon-tabler-octagon-plus">
        <path stroke="none" d="M0 0h24v24H0z" fill="none" />
        <path
            d="M12.802 2.165l5.575 2.389c.48 .206 .863 .589 1.07 1.07l2.388 5.574c.22 .512 .22 1.092 0 1.604l-2.389 5.575c-.206 .48 -.589 .863 -1.07 1.07l-5.574 2.388c-.512 .22 -1.092 .22 -1.604 0l-5.575 -2.389a2.036 2.036 0 0 1 -1.07 -1.07l-2.388 -5.574a2.036 2.036 0 0 1 0 -1.604l2.389 -5.575c.206 -.48 .589 -.863 1.07 -1.07l5.574 -2.388a2.036 2.036 0 0 1 1.604 0z" />
        <path d="M9 12h6" />
        <path d="M12 9v6" />
    </symbol>
</svg>